<svg width="45" height="46" viewBox="0 0 45 46" fill="none" xmlns="http://www.w3.org/2000/svg">
<g clip-path="url(#clip0_109_797)">
<rect y="0.5" width="45" height="45" rx="22.5" fill="#F27830" fill-opacity="0.3"/>
<path d="M5.625 23C5.625 25.2161 6.06148 27.4104 6.90953 29.4578C7.75758 31.5052 9.00058 33.3654 10.5676 34.9324C12.1346 36.4994 13.9948 37.7424 16.0422 38.5905C18.0896 39.4385 20.2839 39.875 22.5 39.875C24.7161 39.875 26.9104 39.4385 28.9578 38.5905C31.0052 37.7424 32.8654 36.4994 34.4324 34.9324C35.9994 33.3654 37.2424 31.5052 38.0905 29.4578C38.9385 27.4104 39.375 25.2161 39.375 23C39.375 20.7839 38.9385 18.5896 38.0905 16.5422C37.2424 14.4948 35.9994 12.6346 34.4324 11.0676C32.8654 9.50058 31.0052 8.25758 28.9578 7.40953C26.9104 6.56148 24.7161 6.125 22.5 6.125C20.2839 6.125 18.0896 6.56148 16.0422 7.40953C13.9948 8.25758 12.1346 9.50058 10.5676 11.0676C9.00058 12.6346 7.75758 14.4948 6.90953 16.5422C6.06148 18.5896 5.625 20.7839 5.625 23Z" stroke="#F27830" stroke-width="2" stroke-linecap="round" stroke-linejoin="round"/>
<path d="M16.875 19.25C16.875 20.7418 17.4676 22.1726 18.5225 23.2275C19.5774 24.2824 21.0082 24.875 22.5 24.875C23.9918 24.875 25.4226 24.2824 26.4775 23.2275C27.5324 22.1726 28.125 20.7418 28.125 19.25C28.125 17.7582 27.5324 16.3274 26.4775 15.2725C25.4226 14.2176 23.9918 13.625 22.5 13.625C21.0082 13.625 19.5774 14.2176 18.5225 15.2725C17.4676 16.3274 16.875 17.7582 16.875 19.25Z" stroke="#F27830" stroke-width="2" stroke-linecap="round" stroke-linejoin="round"/>
<path d="M11.5649 35.8419C12.029 34.2973 12.9786 32.9435 14.2729 31.9812C15.5672 31.0189 17.1372 30.4995 18.7499 30.5H26.2499C27.8648 30.4994 29.4367 31.0201 30.7319 31.9846C32.0271 32.9491 32.9764 34.3058 33.4387 35.8531" stroke="#F27830" stroke-width="2" stroke-linecap="round" stroke-linejoin="round"/>
<circle cx="38" cy="11.5" r="5" fill="#3CCF17"/>
</g>
<defs>
<clipPath id="clip0_109_797">
<rect y="0.5" width="45" height="45" rx="22.5" fill="white"/>
</clipPath>
</defs>
</svg>
