<svg width="40" height="40" viewBox="0 0 40 40" fill="none" xmlns="http://www.w3.org/2000/svg">
<g clip-path="url(#clip0_1_472)">
<path d="M30 3.33337C30.4082 3.33343 30.8022 3.4833 31.1073 3.75457C31.4123 4.02583 31.6072 4.39962 31.655 4.80504L31.6667 5.00004V11.6667C31.6666 12.0749 31.5167 12.4689 31.2455 12.774C30.9742 13.0791 30.6004 13.2739 30.195 13.3217L30 13.3334H25V15H30C30.2373 15.0001 30.4718 15.0509 30.6878 15.1489C30.9039 15.2469 31.0965 15.3899 31.2529 15.5683C31.4093 15.7468 31.5257 15.9566 31.5945 16.1836C31.6633 16.4107 31.6827 16.6498 31.6517 16.885L31.6183 17.0717L29.9517 23.7384C29.8689 24.0676 29.6877 24.3636 29.4321 24.587C29.1766 24.8104 28.8589 24.9504 28.5217 24.9884L28.3333 25H25V35C24.9999 35.4083 24.8501 35.8023 24.5788 36.1073C24.3075 36.4124 23.9338 36.6073 23.5283 36.655L23.3333 36.6667H16.6667C16.2584 36.6667 15.8644 36.5168 15.5594 36.2455C15.2543 35.9742 15.0594 35.6005 15.0117 35.195L15 35V25H11.6667C11.2584 25 10.8644 24.8501 10.5594 24.5788C10.2543 24.3076 10.0594 23.9338 10.0117 23.5284L10 23.3334V16.6667C10.0001 16.2585 10.1499 15.8645 10.4212 15.5594C10.6925 15.2544 11.0662 15.0595 11.4717 15.0117L11.6667 15H15V13.3334C14.9999 10.7461 16.0026 8.25944 17.7974 6.39592C19.5923 4.5324 22.0395 3.43706 24.625 3.34004L25 3.33337H30Z" fill="black"/>
</g>
<defs>
<clipPath id="clip0_1_472">
<rect width="40" height="40" fill="white"/>
</clipPath>
</defs>
</svg>
