<svg width="25" height="25" viewBox="0 0 25 25" fill="none" xmlns="http://www.w3.org/2000/svg">
<g clip-path="url(#clip0_145_68)">
<path d="M10.3335 5.5C10.3335 4.96957 10.5442 4.46086 10.9193 4.08579C11.2944 3.71071 11.8031 3.5 12.3335 3.5C12.8639 3.5 13.3726 3.71071 13.7477 4.08579C14.1228 4.46086 14.3335 4.96957 14.3335 5.5C15.4819 6.04303 16.4609 6.88833 17.1655 7.9453C17.8702 9.00227 18.2739 10.2311 18.3335 11.5V14.5C18.4088 15.1217 18.6289 15.7171 18.9763 16.2381C19.3237 16.7592 19.7886 17.1914 20.3335 17.5H4.3335C4.87843 17.1914 5.34331 16.7592 5.69068 16.2381C6.03806 15.7171 6.25824 15.1217 6.3335 14.5V11.5C6.39306 10.2311 6.7968 9.00227 7.50145 7.9453C8.20609 6.88833 9.18509 6.04303 10.3335 5.5Z" stroke="black" stroke-width="2" stroke-linecap="round" stroke-linejoin="round"/>
<path d="M9.3335 17.5V18.5C9.3335 19.2956 9.64957 20.0587 10.2122 20.6213C10.7748 21.1839 11.5378 21.5 12.3335 21.5C13.1291 21.5 13.8922 21.1839 14.4548 20.6213C15.0174 20.0587 15.3335 19.2956 15.3335 18.5V17.5" stroke="black" stroke-width="2" stroke-linecap="round" stroke-linejoin="round"/>
<circle cx="17.3335" cy="7" r="5" fill="#D80027"/>
</g>
<defs>
<clipPath id="clip0_145_68">
<rect width="24" height="24" fill="white" transform="translate(0.333496 0.5)"/>
</clipPath>
</defs>
</svg>
