<svg width="40" height="40" viewBox="0 0 40 40" fill="none" xmlns="http://www.w3.org/2000/svg">
<g clip-path="url(#clip0_1_2061)">
<path d="M20 15.5234L16.095 11.6167C15.0533 10.6105 13.6581 10.0537 12.2098 10.0662C10.7616 10.0788 9.37623 10.6597 8.35212 11.6838C7.32802 12.7079 6.74713 14.0933 6.73458 15.5415C6.72203 16.9898 7.27883 18.385 8.28503 19.4267L12.19 23.3334M12.19 23.3334L20 31.1434L31.7167 19.4267C32.7227 18.3848 33.2792 16.9894 33.2663 15.5412C33.2535 14.0929 32.6723 12.7077 31.648 11.6838C30.6236 10.6599 29.2381 10.0793 27.7899 10.0671C26.3416 10.0548 24.9465 10.6119 23.905 11.6184L12.19 23.3334Z" stroke="black" stroke-width="3" stroke-linecap="round" stroke-linejoin="round"/>
</g>
<defs>
<clipPath id="clip0_1_2061">
<rect width="40" height="40" fill="white"/>
</clipPath>
</defs>
</svg>
